<svg width="263" height="232" viewBox="0 0 263 232" fill="none" xmlns="http://www.w3.org/2000/svg">
<g filter="url(#filter0_d_924_1529)">
<path d="M155.155 41.8291L186.962 152.395C187.989 156.138 185.759 160.044 182.006 161.073L73.6857 190.797C69.9329 191.827 66.0219 189.607 64.9947 185.863L25.8676 43.2744C24.8404 39.531 27.0705 35.6257 30.8233 34.5959L109.292 13.0638L155.155 41.8291Z" fill="white"/>
</g>
<path d="M156.589 115.443L71.4234 138.812C70.3028 139.12 69.1777 138.533 68.9033 137.533C68.629 136.533 69.2969 135.454 70.4175 135.147L155.583 111.777C156.703 111.469 157.828 112.057 158.103 113.056C158.377 114.056 157.709 115.135 156.589 115.443Z" fill="#E3EAF2"/>
<path d="M153.481 101.57L67.1875 125.249C66.3345 125.483 65.4187 124.819 65.1386 123.798C64.8585 122.778 65.3073 121.74 66.1602 121.505L152.454 97.8261C153.307 97.5921 154.222 98.2556 154.503 99.2765C154.953 100.251 154.334 101.335 153.481 101.57Z" fill="#E3EAF2"/>
<path d="M55.9316 84.242L140.846 60.9411C141.699 60.7071 142.148 59.6691 141.868 58.6481C141.587 57.6272 140.672 56.9637 139.819 57.1977L54.9044 80.4986C54.0515 80.7327 53.6026 81.7707 53.8827 82.7916C54.2096 83.9827 55.0787 84.4761 55.9316 84.242Z" fill="#E3EAF2"/>
<path d="M149.199 87.9236L63.4043 111.466C62.5513 111.7 61.6355 111.037 61.3554 110.016C61.0753 108.995 61.5241 107.957 62.377 107.723L148.172 84.1802C149.025 83.9461 149.941 84.6097 150.221 85.6306C150.501 86.6515 150.052 87.6895 149.199 87.9236Z" fill="#E3EAF2"/>
<path d="M113.503 156.085L109.58 157.162C108.727 157.396 107.811 156.732 107.531 155.712C107.251 154.691 107.7 153.653 108.553 153.419L112.476 152.342C113.329 152.108 114.245 152.771 114.525 153.792C114.852 154.983 114.356 155.851 113.503 156.085Z" fill="#E3EAF2"/>
<path d="M102.585 159.082L79.5566 165.401C78.7037 165.635 77.7879 164.972 77.5077 163.951C77.2276 162.93 77.6765 161.892 78.5294 161.658L101.558 155.339C102.411 155.105 103.327 155.768 103.607 156.789C103.934 157.98 103.438 158.848 102.585 159.082Z" fill="#E3EAF2"/>
<path d="M144.895 74.4669L59.664 97.8548C58.8111 98.0889 57.8953 97.4253 57.6152 96.4044C57.335 95.3835 57.7839 94.3455 58.6368 94.1114L143.868 70.7236C144.721 70.4895 145.637 71.153 145.917 72.174C146.368 73.1481 145.919 74.1861 144.895 74.4669Z" fill="#E3EAF2"/>
<path d="M102.039 40.1202L50.1815 54.3502C48.9875 54.6778 47.6838 53.9377 47.357 52.7467C47.0301 51.5556 47.7735 50.2538 48.9676 49.9262L100.825 35.6962C102.019 35.3686 103.323 36.1086 103.649 37.2997C103.976 38.4908 103.233 39.7926 102.039 40.1202Z" fill="#E3EAF2"/>
<path d="M73.548 61.2949L53.5897 66.7715C52.3957 67.0992 51.092 66.3591 50.7652 65.1681C50.4383 63.977 51.1817 62.6752 52.3758 62.3475L72.1634 56.9177C73.3575 56.59 74.6612 57.3301 74.988 58.5212C75.3148 59.7123 74.5715 61.014 73.548 61.2949Z" fill="#E3EAF2"/>
<path d="M109.291 13.064L117.695 43.6916C118.863 47.9455 123.596 50.4889 127.861 49.3187L155.154 41.8293" fill="#EAEFF4"/>
<g filter="url(#filter1_d_924_1529)">
<path d="M237.048 74.8694L218.191 188.364C217.508 192.185 213.815 194.751 209.984 194.066L99.4131 174.294C95.5823 173.609 93.007 169.922 93.6903 166.101L119.717 20.5501C120.4 16.7289 124.093 14.163 127.924 14.848L208.023 29.1706L237.048 74.8694Z" fill="white"/>
</g>
<path d="M206.67 141.94L119.736 126.395C118.592 126.191 117.829 125.177 118.011 124.156C118.194 123.136 119.261 122.449 120.405 122.653L207.339 138.198C208.483 138.403 209.246 139.417 209.064 140.437C208.881 141.458 207.814 142.145 206.67 141.94Z" fill="#E3EAF2"/>
<path d="M209.839 128.078L121.753 112.327C120.882 112.172 120.341 111.179 120.528 110.137C120.714 109.095 121.566 108.351 122.436 108.506L210.522 124.257C211.393 124.413 211.934 125.406 211.748 126.448C211.736 127.521 210.71 128.234 209.839 128.078Z" fill="#E3EAF2"/>
<path d="M129.235 70.4686L215.914 85.9678C216.784 86.1234 217.636 85.3795 217.823 84.3374C218.009 83.2953 217.468 82.3023 216.597 82.1466L129.919 66.6474C129.048 66.4917 128.196 67.2356 128.01 68.2778C127.793 69.4936 128.365 70.3129 129.235 70.4686Z" fill="#E3EAF2"/>
<path d="M211.844 113.919L124.267 98.2586C123.396 98.1029 122.855 97.1099 123.041 96.0678C123.228 95.0257 124.079 94.2818 124.95 94.4375L212.527 110.097C213.398 110.253 213.939 111.246 213.753 112.288C213.567 113.33 212.715 114.074 211.844 113.919Z" fill="#E3EAF2"/>
<path d="M150.287 160.091L146.282 159.375C145.412 159.219 144.87 158.226 145.057 157.184C145.243 156.142 146.095 155.398 146.966 155.554L150.971 156.27C151.841 156.425 152.382 157.418 152.196 158.461C151.979 159.676 151.158 160.247 150.287 160.091Z" fill="#E3EAF2"/>
<path d="M139.153 158.098L115.646 153.895C114.775 153.739 114.234 152.746 114.42 151.704C114.606 150.662 115.458 149.918 116.329 150.074L139.836 154.277C140.707 154.433 141.248 155.426 141.062 156.468C140.844 157.684 140.023 158.254 139.153 158.098Z" fill="#E3EAF2"/>
<path d="M213.751 99.9211L126.749 84.3641C125.878 84.2084 125.337 83.2154 125.524 82.1733C125.71 81.1311 126.562 80.3872 127.432 80.5429L214.434 96.1C215.305 96.2556 215.846 97.2486 215.66 98.2908C215.648 99.364 214.796 100.108 213.751 99.9211Z" fill="#E3EAF2"/>
<path d="M189.836 50.4754L136.901 41.01C135.683 40.7921 134.824 39.5631 135.042 38.3473C135.259 37.1315 136.49 36.2762 137.709 36.4941L190.644 45.9595C191.863 46.1775 192.721 47.4064 192.504 48.6222C192.286 49.8381 191.055 50.6934 189.836 50.4754Z" fill="#E3EAF2"/>
<path d="M155.009 57.3326L134.636 53.6897C133.417 53.4718 132.559 52.2428 132.776 51.027C132.993 49.8112 134.224 48.9559 135.443 49.1738L155.642 52.7856C156.861 53.0036 157.719 54.2325 157.502 55.4483C157.285 56.6641 156.053 57.5195 155.009 57.3326Z" fill="#E3EAF2"/>
<path d="M208.021 29.1704L202.431 60.4344C201.655 64.7766 204.833 69.1091 209.186 69.8875L237.047 74.8692" fill="#EAEFF4"/>
<path d="M232.045 145.867C232.045 171.901 210.94 193.006 184.906 193.006C158.872 193.006 137.767 171.901 137.767 145.867C137.767 119.833 158.872 98.7277 184.906 98.7277C210.94 98.7277 232.045 119.833 232.045 145.867Z" fill="url(#paint0_linear_924_1529)" stroke="#8D8F94" stroke-width="11.0647"/>
<rect x="211.242" y="183.796" width="12.4748" height="55.4436" rx="6.2374" transform="rotate(-45 211.242 183.796)" fill="#8D8F94"/>
<ellipse cx="166.885" cy="145.867" rx="4.85131" ry="4.85131" fill="#8D8F94"/>
<ellipse cx="202.924" cy="145.867" rx="4.85131" ry="4.85131" fill="#8D8F94"/>
<ellipse cx="185.593" cy="157.649" rx="5.54435" ry="4.15827" fill="#8D8F94"/>
<path d="M166.884 130.62C164.574 131.775 159.399 134.778 157.182 137.551" stroke="#8D8F94" stroke-width="2.76618" stroke-linecap="round"/>
<path d="M202.231 130.62C204.541 131.775 209.716 134.778 211.934 137.551" stroke="#8D8F94" stroke-width="2.76618" stroke-linecap="round"/>
<defs>
<filter id="filter0_d_924_1529" x="0.617188" y="0.0639648" width="211.596" height="227.985" filterUnits="userSpaceOnUse" color-interpolation-filters="sRGB">
<feFlood flood-opacity="0" result="BackgroundImageFix"/>
<feColorMatrix in="SourceAlpha" type="matrix" values="0 0 0 0 0 0 0 0 0 0 0 0 0 0 0 0 0 0 127 0" result="hardAlpha"/>
<feOffset dy="12"/>
<feGaussianBlur stdDeviation="12.5"/>
<feColorMatrix type="matrix" values="0 0 0 0 0.259375 0 0 0 0 0.397207 0 0 0 0 0.691667 0 0 0 0.2 0"/>
<feBlend mode="normal" in2="BackgroundImageFix" result="effect1_dropShadow_924_1529"/>
<feBlend mode="normal" in="SourceGraphic" in2="effect1_dropShadow_924_1529" result="shape"/>
</filter>
<filter id="filter1_d_924_1529" x="68.5801" y="1.7373" width="193.467" height="229.439" filterUnits="userSpaceOnUse" color-interpolation-filters="sRGB">
<feFlood flood-opacity="0" result="BackgroundImageFix"/>
<feColorMatrix in="SourceAlpha" type="matrix" values="0 0 0 0 0 0 0 0 0 0 0 0 0 0 0 0 0 0 127 0" result="hardAlpha"/>
<feOffset dy="12"/>
<feGaussianBlur stdDeviation="12.5"/>
<feColorMatrix type="matrix" values="0 0 0 0 0.259375 0 0 0 0 0.397207 0 0 0 0 0.691667 0 0 0 0.2 0"/>
<feBlend mode="normal" in2="BackgroundImageFix" result="effect1_dropShadow_924_1529"/>
<feBlend mode="normal" in="SourceGraphic" in2="effect1_dropShadow_924_1529" result="shape"/>
</filter>
<linearGradient id="paint0_linear_924_1529" x1="184.906" y1="93.1953" x2="184.906" y2="198.538" gradientUnits="userSpaceOnUse">
<stop stop-color="#F7F8FB"/>
<stop offset="1" stop-color="#F0F3F8"/>
</linearGradient>
</defs>
</svg>
